<svg width="21" height="18" viewBox="0 0 21 18" fill="none" xmlns="http://www.w3.org/2000/svg">
<path d="M14.3395 12.4905C13.876 12.3443 13.2842 11.9633 12.622 11.3003C12.0535 10.7438 11.467 10.0268 10.867 9.24528C10.723 9.43653 10.5797 9.62778 10.4357 9.82278C10.0435 10.3538 9.64224 10.89 9.23349 11.4173C10.6615 13.1498 12.1435 14.8508 14.341 15.1313V17.1563L20.0072 13.8863L14.3402 10.614V12.4905H14.3395ZM4.89399 5.95053C5.46099 6.50553 6.04749 7.22253 6.64899 8.00403C6.79449 7.80753 6.94149 7.61403 7.08849 7.41303C7.48032 6.8809 7.87835 6.35337 8.28249 5.83053C6.75849 3.98253 5.18274 2.15028 2.73549 2.06253H0.110493V4.68753H2.73549C3.22674 4.66728 3.99699 5.05128 4.89399 5.94978V5.95053ZM14.3395 4.75578V6.65778L20.0065 3.38553L14.3395 0.113281V2.09853C12.9115 2.26353 11.7707 3.10953 10.777 4.08153C9.12924 5.71953 7.68924 7.95753 6.26799 9.73653C4.86774 11.5643 3.46299 12.6518 2.73399 12.564H0.108994V15.189H2.73399C4.37274 15.1665 5.64399 14.2395 6.73899 13.1693C8.38449 11.5313 9.82599 9.29403 11.2465 7.51578C12.4037 6.00303 13.5595 5.01078 14.3395 4.75578Z" fill="#C4C4C4"/>
</svg>
