<svg width="18" height="18" viewBox="0 0 18 18" fill="none" xmlns="http://www.w3.org/2000/svg">
<path d="M16.15 5.33805C16.2776 5.33805 16.3953 5.38205 16.4888 5.45575L16.5625 5.52505L16.5812 5.54705C17.2203 6.33911 17.627 7.29297 17.7562 8.30247C17.8854 9.31196 17.732 10.3375 17.313 11.265C16.894 12.1925 16.2259 12.9855 15.383 13.5559C14.5401 14.1262 13.5555 14.4515 12.5387 14.4955L12.3 14.4999H5.69999C5.58882 14.5 5.47767 14.4967 5.36669 14.49L7.18939 16.3105C7.28034 16.4017 7.33642 16.5218 7.34788 16.6501C7.35933 16.7783 7.32544 16.9065 7.25209 17.0123L7.18939 17.0893C7.09825 17.1803 6.97809 17.2364 6.84985 17.2478C6.72161 17.2593 6.59341 17.2254 6.48759 17.152L6.41059 17.0893L3.66059 14.3393C3.56965 14.2482 3.51356 14.128 3.50211 13.9998C3.49065 13.8716 3.52455 13.7434 3.59789 13.6375L3.66059 13.5605L6.41059 10.8105C6.5076 10.7131 6.63759 10.6555 6.77494 10.6492C6.91229 10.6428 7.04704 10.6881 7.15263 10.7762C7.25823 10.8643 7.32701 10.9887 7.34542 11.1249C7.36383 11.2612 7.33053 11.3994 7.25209 11.5123L7.18939 11.5893L5.38869 13.3889L5.54269 13.3977L5.69999 13.3999H12.3C13.1309 13.4 13.9449 13.1648 14.6477 12.7216C15.3505 12.2783 15.9134 11.6451 16.2713 10.8952C16.6292 10.1453 16.7675 9.30942 16.6701 8.48424C16.5727 7.65905 16.2436 6.8783 15.721 6.23235C15.6564 6.15147 15.616 6.05402 15.6043 5.95119C15.5926 5.84836 15.6102 5.74432 15.655 5.65102C15.6998 5.55773 15.77 5.47898 15.8576 5.42381C15.9451 5.36864 16.0465 5.33929 16.15 5.33915V5.33805ZM10.8106 0.910546C10.9017 0.819603 11.0219 0.763518 11.1501 0.752061C11.2784 0.740603 11.4066 0.7745 11.5124 0.847846L11.5894 0.910546L14.3394 3.66055L14.4021 3.73755C14.4655 3.82939 14.4994 3.93835 14.4994 4.04995C14.4994 4.16154 14.4655 4.2705 14.4021 4.36235L14.3394 4.43935L11.5894 7.18935L11.5124 7.25205C11.4205 7.31543 11.3116 7.34938 11.2 7.34938C11.0884 7.34938 10.9794 7.31543 10.8876 7.25205L10.8106 7.18935L10.7479 7.11235C10.6845 7.0205 10.6506 6.91154 10.6506 6.79995C10.6506 6.68835 10.6845 6.57939 10.7479 6.48755L10.8106 6.41055L12.6113 4.61095L12.4573 4.60215L12.3 4.59995H5.69999C4.86837 4.5999 4.05376 4.83553 3.35058 5.27953C2.6474 5.72353 2.08445 6.35772 1.72697 7.10859C1.36949 7.85947 1.23213 8.69627 1.33081 9.52202C1.42948 10.3478 1.76015 11.1286 2.28449 11.7741C2.37216 11.891 2.40982 12.0379 2.38919 12.1825C2.36856 12.3271 2.29133 12.4576 2.17449 12.5452C2.11664 12.5887 2.0508 12.6202 1.98074 12.6382C1.91068 12.6562 1.83776 12.6602 1.76616 12.6499C1.62155 12.6293 1.49106 12.5521 1.40339 12.4352C0.768724 11.642 0.366167 10.6884 0.240364 9.68033C0.114561 8.67223 0.270427 7.64899 0.690678 6.72408C1.11093 5.79916 1.77914 5.00871 2.62122 4.44039C3.46329 3.87206 4.44632 3.54807 5.46129 3.50435L5.69999 3.49995H12.3C12.4122 3.49995 12.5233 3.50325 12.6333 3.50985L10.8106 1.68935L10.7479 1.61235C10.6745 1.50653 10.6406 1.37833 10.6521 1.25009C10.6636 1.12185 10.7196 1.00169 10.8106 0.910546Z" fill="#C4C4C4"/>
</svg>
